<?xml version="1.0" encoding="UTF-8" standalone="no"?>
<!-- Created with Inkscape (http://www.inkscape.org/) -->

<svg
   width="212.02182"
   height="103.1231"
   viewBox="0 0 56.097442 27.284652"
   version="1.1"
   id="svg1576"
   inkscape:version="1.2.2 (b0a8486541, 2022-12-01)"
   sodipodi:docname="logo.svg"
   xml:space="preserve"
   xmlns:inkscape="http://www.inkscape.org/namespaces/inkscape"
   xmlns:sodipodi="http://sodipodi.sourceforge.net/DTD/sodipodi-0.dtd"
   xmlns="http://www.w3.org/2000/svg"
   xmlns:svg="http://www.w3.org/2000/svg"><sodipodi:namedview
     id="namedview1578"
     pagecolor="#ffffff"
     bordercolor="#000000"
     borderopacity="0.25"
     inkscape:showpageshadow="2"
     inkscape:pageopacity="0.0"
     inkscape:pagecheckerboard="0"
     inkscape:deskcolor="#d1d1d1"
     inkscape:document-units="mm"
     showgrid="false"
     inkscape:zoom="1.8298121"
     inkscape:cx="-34.97627"
     inkscape:cy="99.737019"
     inkscape:window-width="1452"
     inkscape:window-height="1230"
     inkscape:window-x="169"
     inkscape:window-y="126"
     inkscape:window-maximized="0"
     inkscape:current-layer="layer1" /><defs
     id="defs1573"><rect
       x="284.73288"
       y="349.43369"
       width="230.05714"
       height="82.680786"
       id="rect4700" /><rect
       x="284.73288"
       y="349.43369"
       width="230.05714"
       height="82.680786"
       id="rect4700-3" /></defs><g
     inkscape:label="Layer 1"
     inkscape:groupmode="layer"
     id="layer1"
     transform="translate(-70.991609,-129.63305)"><g
       id="g955"
       transform="matrix(2.0764388,0,0,2.0764388,-116.60606,-27.330888)"><path
         d="m 96.022728,75.592858 v 3.96875 c -1.619846,-0.0097 -2.905721,-1.047155 -2.905721,-2.38125 0,-0.679847 0.376833,-1.146373 0.921346,-1.5875 h -2.38125 c -0.342106,0.520898 -0.496094,0.962422 -0.496094,1.5875 0,2.100659 2.163366,3.95982 4.861719,3.96875 h 1.984375 v -5.55625 z"
         id="path8"
         style="fill:#000000;fill-opacity:1;stroke-width:0.198437" /><path
         d="m 107.13523,78.767858 v 0.396875 c 0,0.219075 -0.22245,0.396875 -0.4961,0.396875 h -2.18281 c -0.27364,0 -0.49609,-0.1778 -0.49609,-0.396875 v -1.5875 c 0,-0.219075 0.22245,-0.396875 0.49609,-0.396875 h 2.18281 c 0.27365,0 0.4961,0.1778 0.4961,0.396875 v 0.396875 h 1.98437 v -0.396875 c 0,-1.094184 -1.11264,-1.984375 -2.48047,-1.984375 h -2.18281 c -1.36783,0 -2.48047,0.890191 -2.48047,1.984375 v 1.5875 c 0,1.094184 1.11264,1.984375 2.48047,1.984375 h 2.18281 c 1.36783,0 2.48047,-0.890191 2.48047,-1.984375 v -0.396875 z"
         id="path10"
         style="fill:#000000;fill-opacity:1;stroke-width:0.198437" /><path
         d="m 117.0571,78.966295 v -1.389062 c 0,-1.094581 -1.11224,-1.984375 -2.48047,-1.984375 h -2.18281 c -1.36743,0 -2.48047,0.889794 -2.48047,1.984375 v 1.5875 c 0,1.093788 1.11304,1.984375 2.48047,1.984375 h 2.18281 c 1.28449,0 2.34296,-0.78482 2.46817,-1.785938 h -1.97207 c 0,0.327819 -0.4449,0.595313 -0.99219,0.595313 h -1.19062 c -0.5473,0 -0.99219,-0.267494 -0.99219,-0.595313 v -0.396875 z m -4.16718,-2.182812 h 1.19062 c 0.54729,0 0.99219,0.2667 0.99219,0.595312 v 0.396876 h -3.175 v -0.396876 c 0,-0.328612 0.44489,-0.595312 0.99219,-0.595312 z"
         id="path12"
         style="fill:#000000;fill-opacity:1;stroke-width:0.198437" /><rect
         x="99.197731"
         y="75.592857"
         width="1.984375"
         height="5.5562501"
         id="rect14"
         style="fill:#000000;fill-opacity:1;stroke-width:0.198437" /></g><g
       aria-label="debug"
       transform="matrix(0.50695306,0,0,0.40908029,-60.665694,-0.98006897)"
       id="text4698"
       style="font-size:26.6667px;white-space:pre;shape-inside:url(#rect4700);display:inline"><path
         d="m 285.87909,366.33695 q 0,-2.24 0.90667,-3.92 0.90667,-1.70667 2.48,-2.64 1.6,-0.93334 3.57334,-0.93334 1.70667,0 3.17334,0.8 1.46666,0.77334 2.24,2.05334 v -7.73335 h 2.45334 v 19.73336 h -2.45334 v -2.74667 q -0.72,1.30667 -2.13334,2.16001 -1.41333,0.82666 -3.30667,0.82666 -1.94667,0 -3.54667,-0.96 -1.57333,-0.96 -2.48,-2.69334 -0.90667,-1.73333 -0.90667,-3.94667 z m 12.37335,0.0267 q 0,-1.65334 -0.66667,-2.88 -0.66667,-1.22667 -1.81333,-1.86667 -1.12001,-0.66667 -2.48001,-0.66667 -1.36,0 -2.48,0.64 -1.12,0.64 -1.78667,1.86667 -0.66667,1.22667 -0.66667,2.88 0,1.68001 0.66667,2.93334 0.66667,1.22667 1.78667,1.89334 1.12,0.64 2.48,0.64 1.36,0 2.48001,-0.64 1.14666,-0.66667 1.81333,-1.89334 0.66667,-1.25333 0.66667,-2.90667 z"
         style="font-family:Poppins;-inkscape-font-specification:Poppins"
         id="path855" /><path
         d="m 318.14581,365.83029 q 0,0.69333 -0.08,1.46666 H 306.3858 q 0.13333,2.16001 1.46667,3.38668 1.36,1.2 3.28,1.2 1.57334,0 2.61334,-0.72 1.06667,-0.74667 1.49333,-1.97334 h 2.61334 q -0.58667,2.10667 -2.34667,3.44 -1.76,1.30667 -4.37334,1.30667 -2.08,0 -3.73334,-0.93333 -1.62667,-0.93334 -2.56,-2.64 -0.93334,-1.73334 -0.93334,-4.00001 0,-2.26667 0.90667,-3.97334 0.90667,-1.70667 2.53334,-2.61333 1.65333,-0.93334 3.78667,-0.93334 2.08,0 3.68001,0.90667 1.6,0.90667 2.45333,2.50667 0.88,1.57333 0.88,3.57334 z m -2.50667,-0.50667 q 0,-1.38667 -0.61333,-2.37334 -0.61334,-1.01333 -1.68,-1.52 -1.04,-0.53333 -2.32001,-0.53333 -1.84,0 -3.14667,1.17333 -1.28,1.17334 -1.46667,3.25334 z"
         style="font-family:Poppins;-inkscape-font-specification:Poppins"
         id="path857" /><path
         d="m 323.77251,361.80361 q 0.74667,-1.30666 2.18667,-2.13333 1.44,-0.82667 3.28,-0.82667 1.97334,0 3.54667,0.93334 1.57334,0.93333 2.48001,2.64 0.90666,1.68 0.90666,3.92 0,2.21334 -0.90666,3.94667 -0.90667,1.73334 -2.50667,2.69334 -1.57334,0.96 -3.52001,0.96 -1.89333,0 -3.33333,-0.82666 -1.41334,-0.82667 -2.13334,-2.10667 v 2.69333 h -2.42667 V 353.9636 h 2.42667 z m 9.92001,4.53334 q 0,-1.65333 -0.66667,-2.88 -0.66666,-1.22667 -1.81333,-1.86667 -1.12,-0.64 -2.48,-0.64 -1.33334,0 -2.48001,0.66667 -1.12,0.64 -1.81333,1.89333 -0.66667,1.22667 -0.66667,2.85334 0,1.65334 0.66667,2.90667 0.69333,1.22667 1.81333,1.89334 1.14667,0.64 2.48001,0.64 1.36,0 2.48,-0.64 1.14667,-0.66667 1.81333,-1.89334 0.66667,-1.25333 0.66667,-2.93334 z"
         style="font-family:Poppins;-inkscape-font-specification:Poppins"
         id="path859" /><path
         d="m 352.33256,359.08361 v 14.61335 h -2.42667 v -2.16 q -0.69334,1.12 -1.94667,1.76 -1.22667,0.61334 -2.72,0.61334 -1.70667,0 -3.06667,-0.69334 -1.36001,-0.72 -2.16001,-2.13333 -0.77333,-1.41334 -0.77333,-3.44001 v -8.56001 h 2.4 v 8.24001 q 0,2.16 1.09334,3.33334 1.09333,1.14667 2.98667,1.14667 1.94667,0 3.06667,-1.2 1.12,-1.20001 1.12,-3.49334 v -8.02668 z"
         style="font-family:Poppins;-inkscape-font-specification:Poppins"
         id="path861" /><path
         d="m 362.46589,358.84361 q 1.89334,0 3.30667,0.82667 1.44,0.82667 2.13334,2.08 v -2.66667 h 2.45333 v 14.93335 q 0,2.00001 -0.85333,3.54667 -0.85334,1.57334 -2.45334,2.45334 -1.57333,0.88 -3.68,0.88 -2.88001,0 -4.80001,-1.36 -1.92,-1.36 -2.26667,-3.70667 h 2.4 q 0.40001,1.33333 1.65334,2.13333 1.25334,0.82667 3.01334,0.82667 2,0 3.25333,-1.25333 1.28001,-1.25334 1.28001,-3.52001 v -3.06667 q -0.72,1.28 -2.13334,2.13334 -1.41333,0.85333 -3.30667,0.85333 -1.94667,0 -3.54667,-0.96 -1.57334,-0.96 -2.48,-2.69334 -0.90667,-1.73333 -0.90667,-3.94667 0,-2.24 0.90667,-3.92 0.90666,-1.70667 2.48,-2.64 1.6,-0.93334 3.54667,-0.93334 z m 5.44001,7.52001 q 0,-1.65334 -0.66667,-2.88 -0.66667,-1.22667 -1.81334,-1.86667 -1.12,-0.66667 -2.48,-0.66667 -1.36,0 -2.48,0.64 -1.12,0.64 -1.78667,1.86667 -0.66667,1.22667 -0.66667,2.88 0,1.68001 0.66667,2.93334 0.66667,1.22667 1.78667,1.89334 1.12,0.64 2.48,0.64 1.36,0 2.48,-0.64 1.14667,-0.66667 1.81334,-1.89334 0.66667,-1.25333 0.66667,-2.90667 z"
         style="font-family:Poppins;-inkscape-font-specification:Poppins"
         id="path863" /></g><g
       id="g1484"
       transform="matrix(0.45105208,0,0,0.45105208,44.365298,85.297983)"><path
         d="m 82.429031,139.03737 c 0,3.90526 -2.083372,7.51393 -5.465432,9.46665 -3.382218,1.95256 -7.549109,1.95256 -10.931174,0 -3.382053,-1.95272 -5.465583,-5.56139 -5.465583,-9.46665 0,-3.9053 2.08353,-7.51397 5.465583,-9.46669 3.382214,-1.95272 7.549114,-1.95272 10.931174,0 3.38206,1.95272 5.465432,5.56139 5.465432,9.46669"
         fill="none"
         stroke="#000000"
         stroke-miterlimit="10"
         stroke-width="3.07055"
         id="path2453" /><path
         d="m 80.458515,146.1834 11.179071,9.76929 c 0.542729,0.47432 0.508408,1.40139 0.123964,1.84136 l -0.47483,0.54339 c -0.474306,0.54271 -1.298632,0.59813 -1.841361,0.12396 l -11.179071,-9.76927 c -0.542731,-0.4743 -0.50841,-1.40137 -0.123963,-1.84137 l 0.474829,-0.5434 c 0.474304,-0.54272 1.298632,-0.59814 1.841361,-0.12396 z"
         id="path2455"
         style="stroke-width:0.0277742;stroke-dasharray:none;paint-order:stroke fill markers" /><path
         d="m 78.058355,138.02079 c -0.15932,-0.12566 -0.39054,-0.0986 -0.516134,0.0608 l -0.850825,1.07773 -1.118309,0.1101 c -0.107036,-0.91234 -0.352118,-1.8187 -0.769967,-2.57887 l 1.354875,-0.5251 c 0.10428,-0.0404 0.184546,-0.12627 0.218001,-0.23311 l 0.443422,-1.42011 c 0.06044,-0.19372 -0.04762,-0.39985 -0.241339,-0.46035 -0.193449,-0.0606 -0.399714,0.0476 -0.460419,0.24127 l -0.39054,1.25101 -1.337516,0.51836 c -0.234375,-0.2972 -0.505629,-0.55662 -0.816847,-0.76565 -0.06593,-0.46946 -0.27933,-0.90067 -0.60113,-1.22347 l 0.442469,-0.56788 c 0.124784,-0.16012 0.09605,-0.391 -0.06408,-0.51579 -0.159994,-0.12472 -0.39108,-0.0962 -0.515729,0.064 l -0.468943,0.60184 c -0.237065,-0.10472 -0.491877,-0.15916 -0.751377,-0.15916 -0.259332,0 -0.513984,0.0544 -0.750298,0.1585 l -0.469348,-0.60138 c -0.125054,-0.16 -0.355736,-0.18839 -0.515864,-0.0636 -0.159993,0.12485 -0.188457,0.3558 -0.06367,0.5158 l 0.442494,0.56697 c -0.322777,0.32354 -0.536327,0.75506 -0.602184,1.22475 -0.310358,0.20858 -0.580929,0.46727 -0.81484,0.76358 l -1.337279,-0.5191 -0.389866,-1.25114 c -0.06044,-0.19379 -0.266431,-0.30171 -0.460284,-0.24155 -0.193719,0.0604 -0.30191,0.26644 -0.241475,0.46023 l 0.442612,1.42031 c 0.03332,0.1069 0.113588,0.19277 0.217866,0.23324 l 1.354658,0.52582 c -0.418128,0.75996 -0.663472,1.66621 -0.770727,2.57854 l -1.118815,-0.11082 -0.850285,-1.07814 c -0.125459,-0.15918 -0.356545,-0.1869 -0.516134,-0.061 -0.159319,0.12566 -0.186704,0.35675 -0.06097,0.51613 l 0.947009,1.2009 c 0.06179,0.0784 0.152979,0.12829 0.252401,0.13814 l 1.289643,0.1277 c -0.005,0.12786 -0.0075,0.25508 -0.0075,0.38128 0,0.57684 0.08406,1.11053 0.242309,1.59077 l -1.03607,0.31937 c -0.115476,0.0356 -0.20613,0.12579 -0.242284,0.24114 l -0.3556,1.13256 c -0.06084,0.19365 0.04681,0.39992 0.240529,0.46069 0.03669,0.0115 0.07366,0.017 0.110215,0.017 0.156216,0 0.301235,-0.10049 0.350474,-0.25752 l 0.297728,-0.94829 0.92696,-0.28572 c 0.66402,1.22439 1.905545,1.96052 3.489046,1.96052 1.58248,0 2.823473,-0.73526 3.487764,-1.95836 l 0.925676,0.28585 0.297189,0.9485 c 0.04924,0.15716 0.194259,0.25772 0.350609,0.25772 0.03643,0 0.07352,-0.005 0.110081,-0.0169 0.193584,-0.0606 0.301505,-0.2669 0.240799,-0.46055 l -0.354927,-1.13277 c -0.03615,-0.11541 -0.126807,-0.20559 -0.242282,-0.24127 l -1.034831,-0.31957 c 0.158754,-0.48086 0.243093,-1.01533 0.243093,-1.59313 0,-0.12554 -0.0025,-0.25209 -0.0075,-0.37926 l 1.288883,-0.12689 c 0.09942,-0.01 0.190482,-0.0596 0.252402,-0.13801 l 0.947684,-1.20042 c 0.125863,-0.15932 0.09861,-0.39041 -0.06071,-0.5162 z m -9.217871,-0.48943 c 0.49293,-1.18301 1.372321,-2.06615 2.77389,-2.06615 1.401492,0 2.280849,0.88314 2.773762,2.06615 z m 2.131758,-3.09956 c 0.196012,-0.13295 0.411989,-0.20033 0.641727,-0.20033 0.226499,0 0.448413,0.0693 0.643615,0.20168 0.167793,0.11219 0.306438,0.26378 0.408213,0.44047 -0.320097,-0.0931 -0.669905,-0.14349 -1.051423,-0.14349 -0.381822,0 -0.731892,0.0504 -1.052199,0.14371 0.102044,-0.17704 0.241245,-0.32912 0.410067,-0.44204 z m 0.642132,9.4452 c -1.997624,0 -3.288363,-1.37201 -3.288363,-3.49543 0,-0.69846 0.08173,-1.43298 0.265672,-2.11513 h 2.655218 v 2.85513 c 0,0.20296 0.164445,0.36754 0.367473,0.36754 0.203027,0 0.367472,-0.16458 0.367472,-0.36754 v -2.85513 h 2.655092 c 0.183938,0.68215 0.265663,1.41667 0.265663,2.11513 0,2.12342 -1.290739,3.49543 -3.288227,3.49543 z"
         id="path944"
         style="stroke-width:0.138606" /></g></g></svg>
