<?xml version="1.0" encoding="UTF-8" standalone="no"?>
<!-- Created with Inkscape (http://www.inkscape.org/) -->

<svg
   width="300.52896"
   height="131.18773"
   viewBox="0 0 79.514957 34.710084"
   version="1.1"
   id="svg1576"
   inkscape:version="1.2.2 (b0a8486541, 2022-12-01)"
   sodipodi:docname="logo.svg"
   xmlns:inkscape="http://www.inkscape.org/namespaces/inkscape"
   xmlns:sodipodi="http://sodipodi.sourceforge.net/DTD/sodipodi-0.dtd"
   xmlns="http://www.w3.org/2000/svg"
   xmlns:svg="http://www.w3.org/2000/svg">
  <sodipodi:namedview
     id="namedview1578"
     pagecolor="#ffffff"
     bordercolor="#000000"
     borderopacity="0.25"
     inkscape:showpageshadow="2"
     inkscape:pageopacity="0.0"
     inkscape:pagecheckerboard="0"
     inkscape:deskcolor="#d1d1d1"
     inkscape:document-units="mm"
     showgrid="false"
     inkscape:zoom="3.6596241"
     inkscape:cx="98.644012"
     inkscape:cy="67.903149"
     inkscape:window-width="2490"
     inkscape:window-height="1376"
     inkscape:window-x="70"
     inkscape:window-y="27"
     inkscape:window-maximized="1"
     inkscape:current-layer="layer1" />
  <defs
     id="defs1573">
    <rect
       x="284.73288"
       y="349.43369"
       width="230.05714"
       height="82.680786"
       id="rect4700" />
    <rect
       x="284.73288"
       y="349.43369"
       width="230.05714"
       height="82.680786"
       id="rect4700-3" />
  </defs>
  <g
     inkscape:label="Layer 1"
     inkscape:groupmode="layer"
     id="layer1"
     transform="translate(-59.031564,-126.57179)">
    <g
       id="g946"
       transform="matrix(2.0764388,0,0,2.0764388,-63.543864,-136.24677)">
      <g
         id="g955"
         transform="translate(-19.731628,56.483486)">
        <path
           d="m 96.022728,75.592858 v 3.96875 c -1.619846,-0.0097 -2.905721,-1.047155 -2.905721,-2.38125 0,-0.679847 0.376833,-1.146373 0.921346,-1.5875 h -2.38125 c -0.342106,0.520898 -0.496094,0.962422 -0.496094,1.5875 0,2.100659 2.163366,3.95982 4.861719,3.96875 h 1.984375 v -5.55625 z"
           id="path8"
           style="fill:#000000;fill-opacity:1;stroke-width:0.198437" />
        <path
           d="m 107.13523,78.767858 v 0.396875 c 0,0.219075 -0.22245,0.396875 -0.4961,0.396875 h -2.18281 c -0.27364,0 -0.49609,-0.1778 -0.49609,-0.396875 v -1.5875 c 0,-0.219075 0.22245,-0.396875 0.49609,-0.396875 h 2.18281 c 0.27365,0 0.4961,0.1778 0.4961,0.396875 v 0.396875 h 1.98437 v -0.396875 c 0,-1.094184 -1.11264,-1.984375 -2.48047,-1.984375 h -2.18281 c -1.36783,0 -2.48047,0.890191 -2.48047,1.984375 v 1.5875 c 0,1.094184 1.11264,1.984375 2.48047,1.984375 h 2.18281 c 1.36783,0 2.48047,-0.890191 2.48047,-1.984375 v -0.396875 z"
           id="path10"
           style="fill:#000000;fill-opacity:1;stroke-width:0.198437" />
        <path
           d="m 117.0571,78.966295 v -1.389062 c 0,-1.094581 -1.11224,-1.984375 -2.48047,-1.984375 h -2.18281 c -1.36743,0 -2.48047,0.889794 -2.48047,1.984375 v 1.5875 c 0,1.093788 1.11304,1.984375 2.48047,1.984375 h 2.18281 c 1.28449,0 2.34296,-0.78482 2.46817,-1.785938 h -1.97207 c 0,0.327819 -0.4449,0.595313 -0.99219,0.595313 h -1.19062 c -0.5473,0 -0.99219,-0.267494 -0.99219,-0.595313 v -0.396875 z m -4.16718,-2.182812 h 1.19062 c 0.54729,0 0.99219,0.2667 0.99219,0.595312 v 0.396876 h -3.175 v -0.396876 c 0,-0.328612 0.44489,-0.595312 0.99219,-0.595312 z"
           id="path12"
           style="fill:#000000;fill-opacity:1;stroke-width:0.198437" />
        <rect
           x="99.197731"
           y="75.592857"
           width="1.984375"
           height="5.5562501"
           id="rect14"
           style="fill:#000000;fill-opacity:1;stroke-width:0.198437" />
      </g>
      <g
         aria-label="debug"
         transform="matrix(0.24414544,0,0,0.19701052,6.9039544,68.247232)"
         id="text4698"
         style="font-size:26.6667px;white-space:pre;shape-inside:url(#rect4700);display:inline">
        <path
           d="m 285.87909,366.33695 q 0,-2.24 0.90667,-3.92 0.90667,-1.70667 2.48,-2.64 1.6,-0.93334 3.57334,-0.93334 1.70667,0 3.17334,0.8 1.46666,0.77334 2.24,2.05334 v -7.73335 h 2.45334 v 19.73336 h -2.45334 v -2.74667 q -0.72,1.30667 -2.13334,2.16001 -1.41333,0.82666 -3.30667,0.82666 -1.94667,0 -3.54667,-0.96 -1.57333,-0.96 -2.48,-2.69334 -0.90667,-1.73333 -0.90667,-3.94667 z m 12.37335,0.0267 q 0,-1.65334 -0.66667,-2.88 -0.66667,-1.22667 -1.81333,-1.86667 -1.12001,-0.66667 -2.48001,-0.66667 -1.36,0 -2.48,0.64 -1.12,0.64 -1.78667,1.86667 -0.66667,1.22667 -0.66667,2.88 0,1.68001 0.66667,2.93334 0.66667,1.22667 1.78667,1.89334 1.12,0.64 2.48,0.64 1.36,0 2.48001,-0.64 1.14666,-0.66667 1.81333,-1.89334 0.66667,-1.25333 0.66667,-2.90667 z"
           style="font-family:Poppins;-inkscape-font-specification:Poppins"
           id="path855" />
        <path
           d="m 318.14581,365.83029 q 0,0.69333 -0.08,1.46666 H 306.3858 q 0.13333,2.16001 1.46667,3.38668 1.36,1.2 3.28,1.2 1.57334,0 2.61334,-0.72 1.06667,-0.74667 1.49333,-1.97334 h 2.61334 q -0.58667,2.10667 -2.34667,3.44 -1.76,1.30667 -4.37334,1.30667 -2.08,0 -3.73334,-0.93333 -1.62667,-0.93334 -2.56,-2.64 -0.93334,-1.73334 -0.93334,-4.00001 0,-2.26667 0.90667,-3.97334 0.90667,-1.70667 2.53334,-2.61333 1.65333,-0.93334 3.78667,-0.93334 2.08,0 3.68001,0.90667 1.6,0.90667 2.45333,2.50667 0.88,1.57333 0.88,3.57334 z m -2.50667,-0.50667 q 0,-1.38667 -0.61333,-2.37334 -0.61334,-1.01333 -1.68,-1.52 -1.04,-0.53333 -2.32001,-0.53333 -1.84,0 -3.14667,1.17333 -1.28,1.17334 -1.46667,3.25334 z"
           style="font-family:Poppins;-inkscape-font-specification:Poppins"
           id="path857" />
        <path
           d="m 323.77251,361.80361 q 0.74667,-1.30666 2.18667,-2.13333 1.44,-0.82667 3.28,-0.82667 1.97334,0 3.54667,0.93334 1.57334,0.93333 2.48001,2.64 0.90666,1.68 0.90666,3.92 0,2.21334 -0.90666,3.94667 -0.90667,1.73334 -2.50667,2.69334 -1.57334,0.96 -3.52001,0.96 -1.89333,0 -3.33333,-0.82666 -1.41334,-0.82667 -2.13334,-2.10667 v 2.69333 h -2.42667 V 353.9636 h 2.42667 z m 9.92001,4.53334 q 0,-1.65333 -0.66667,-2.88 -0.66666,-1.22667 -1.81333,-1.86667 -1.12,-0.64 -2.48,-0.64 -1.33334,0 -2.48001,0.66667 -1.12,0.64 -1.81333,1.89333 -0.66667,1.22667 -0.66667,2.85334 0,1.65334 0.66667,2.90667 0.69333,1.22667 1.81333,1.89334 1.14667,0.64 2.48001,0.64 1.36,0 2.48,-0.64 1.14667,-0.66667 1.81333,-1.89334 0.66667,-1.25333 0.66667,-2.93334 z"
           style="font-family:Poppins;-inkscape-font-specification:Poppins"
           id="path859" />
        <path
           d="m 352.33256,359.08361 v 14.61335 h -2.42667 v -2.16 q -0.69334,1.12 -1.94667,1.76 -1.22667,0.61334 -2.72,0.61334 -1.70667,0 -3.06667,-0.69334 -1.36001,-0.72 -2.16001,-2.13333 -0.77333,-1.41334 -0.77333,-3.44001 v -8.56001 h 2.4 v 8.24001 q 0,2.16 1.09334,3.33334 1.09333,1.14667 2.98667,1.14667 1.94667,0 3.06667,-1.2 1.12,-1.20001 1.12,-3.49334 v -8.02668 z"
           style="font-family:Poppins;-inkscape-font-specification:Poppins"
           id="path861" />
        <path
           d="m 362.46589,358.84361 q 1.89334,0 3.30667,0.82667 1.44,0.82667 2.13334,2.08 v -2.66667 h 2.45333 v 14.93335 q 0,2.00001 -0.85333,3.54667 -0.85334,1.57334 -2.45334,2.45334 -1.57333,0.88 -3.68,0.88 -2.88001,0 -4.80001,-1.36 -1.92,-1.36 -2.26667,-3.70667 h 2.4 q 0.40001,1.33333 1.65334,2.13333 1.25334,0.82667 3.01334,0.82667 2,0 3.25333,-1.25333 1.28001,-1.25334 1.28001,-3.52001 v -3.06667 q -0.72,1.28 -2.13334,2.13334 -1.41333,0.85333 -3.30667,0.85333 -1.94667,0 -3.54667,-0.96 -1.57334,-0.96 -2.48,-2.69334 -0.90667,-1.73333 -0.90667,-3.94667 0,-2.24 0.90667,-3.92 0.90666,-1.70667 2.48,-2.64 1.6,-0.93334 3.54667,-0.93334 z m 5.44001,7.52001 q 0,-1.65334 -0.66667,-2.88 -0.66667,-1.22667 -1.81334,-1.86667 -1.12,-0.66667 -2.48,-0.66667 -1.36,0 -2.48,0.64 -1.12,0.64 -1.78667,1.86667 -0.66667,1.22667 -0.66667,2.88 0,1.68001 0.66667,2.93334 0.66667,1.22667 1.78667,1.89334 1.12,0.64 2.48,0.64 1.36,0 2.48,-0.64 1.14667,-0.66667 1.81334,-1.89334 0.66667,-1.25333 0.66667,-2.90667 z"
           style="font-family:Poppins;-inkscape-font-specification:Poppins"
           id="path863" />
      </g>
      <g
         id="g4461"
         transform="translate(1.1219333,0.4704574)">
        <path
           d="m 69.177704,132.10467 c 0,1.88075 -1.003339,3.61866 -2.632118,4.55908 -1.628855,0.94034 -3.635604,0.94034 -5.264385,0 -1.628776,-0.94042 -2.632191,-2.67833 -2.632191,-4.55908 0,-1.88077 1.003415,-3.61868 2.632191,-4.5591 1.628853,-0.94042 3.635606,-0.94042 5.264385,0 1.628779,0.94042 2.632118,2.67833 2.632118,4.5591"
           fill="none"
           stroke="#000000"
           stroke-miterlimit="10"
           stroke-width="1.47876"
           id="path2453" />
        <path
           d="m 68.228716,135.54615 5.383771,4.70483 c 0.261375,0.22843 0.244846,0.6749 0.0597,0.88679 l -0.228675,0.26169 c -0.228423,0.26137 -0.625413,0.28806 -0.886788,0.0597 l -5.383771,-4.70482 c -0.261376,-0.22842 -0.244847,-0.67489 -0.0597,-0.88679 l 0.228675,-0.2617 c 0.228422,-0.26137 0.625413,-0.28806 0.886788,-0.0597 z"
           id="path2455"
           style="stroke-width:0.0133759;stroke-dasharray:none;paint-order:stroke fill markers" />
        <path
           d="m 62.005723,129.52422 c 0,0 -3.024063,2.35123 0,5.3679"
           fill="none"
           stroke="#000000"
           stroke-miterlimit="10"
           id="path2457"
           style="stroke-width:0.739165;stroke-linecap:round;stroke-dasharray:none;stroke-dashoffset:0" />
      </g>
    </g>
  </g>
</svg>
