<?xml version="1.0" encoding="UTF-8" standalone="no"?>
<svg
   version="1.1"
   id="Ebene_1"
   x="0px"
   y="0px"
   width="172px"
   height="48px"
   viewBox="0 0 228.5 64"
   enable-background="new 0 0 228.5 64"
   xml:space="preserve"
   fill="#ffffff"
   fill-opacity="1"
   sodipodi:docname="vice-logo.svg"
   inkscape:version="1.1.2 (0a00cf5339, 2022-02-04)"
   xmlns:inkscape="http://www.inkscape.org/namespaces/inkscape"
   xmlns:sodipodi="http://sodipodi.sourceforge.net/DTD/sodipodi-0.dtd"
   xmlns="http://www.w3.org/2000/svg"
   xmlns:svg="http://www.w3.org/2000/svg"><defs
   id="defs19" /><sodipodi:namedview
   id="namedview17"
   pagecolor="#ffffff"
   bordercolor="#666666"
   borderopacity="1.0"
   inkscape:pageshadow="2"
   inkscape:pageopacity="0.0"
   inkscape:pagecheckerboard="0"
   showgrid="false"
   inkscape:zoom="1.8575581"
   inkscape:cx="-41.72144"
   inkscape:cy="138.62285"
   inkscape:window-width="2560"
   inkscape:window-height="1376"
   inkscape:window-x="0"
   inkscape:window-y="27"
   inkscape:window-maximized="1"
   inkscape:current-layer="Ebene_1" />
<path
   d="M40,0v48c-13.25-0.11-24-12.629-24-28c0-7.829,2.771-14.914,7.226-20H4.389C1.59,6.005,0,12.8,0,20  c0,24.197,17.928,43.891,40,43.995L56,64V0H40z"
   id="path2"
   style="fill:#a90000;fill-opacity:1" />
<polygon
   points="60,16 60,30 76,30 90,16 "
   id="polygon4"
   style="fill:#a90000;fill-opacity:1" />
<polygon
   points="90,48 76,34 60,34 60,48 "
   id="polygon6"
   style="fill:#a90000;fill-opacity:1" />
<path
   d="M122.5,18v20c-8.163-0.049-14.643-5.277-14.643-12c0-3.426,1.899-5.777,4.643-8h-12  c-1.724,2.625-2.5,4.85-2.5,8c0,10.586,10.902,19.955,24.5,20h10V18H122.5z"
   id="path8"
   style="fill:#a90000;fill-opacity:1" />
<path
   d="M178.5,34v2c0,1.104-1.121,2-2.5,2h-11c-1.379,0-2.5-0.896-2.5-2v-8c0-1.104,1.121-2,2.5-2h11  c1.379,0,2.5,0.896,2.5,2v2h10v-2c0-5.514-5.607-10-12.5-10h-11c-6.893,0-12.5,4.486-12.5,10v8c0,5.514,5.607,10,12.5,10h11  c6.893,0,12.5-4.486,12.5-10v-2H178.5z"
   id="path10"
   style="fill:#a90000;fill-opacity:1" />
<path
   d="M228.5,35v-7c0-5.516-5.605-10-12.5-10h-11c-6.891,0-12.5,4.484-12.5,10v8c0,5.512,5.609,10,12.5,10h11  c6.473,0,11.807-3.955,12.438-9H218.5c0,1.652-2.242,3-5,3h-6c-2.758,0-5-1.348-5-3v-2H228.5z M207.5,24h6c2.758,0,5,1.344,5,3v2  h-16v-2C202.5,25.344,204.742,24,207.5,24z"
   id="path12"
   style="fill:#a90000;fill-opacity:1" />
<rect
   x="138.5"
   y="18"
   width="10"
   height="28"
   id="rect14"
   style="fill:#a90000;fill-opacity:1" />
</svg>
