<?xml version="1.0" encoding="UTF-8" standalone="no"?>
<svg
   width="16"
   height="16"
   viewBox="0 0 16 16"
   fill="currentColor"
   version="1.1"
   id="svg4"
   sodipodi:docname="debug-disconnect.svg"
   inkscape:version="1.1.2 (0a00cf5339, 2022-02-04)"
   xmlns:inkscape="http://www.inkscape.org/namespaces/inkscape"
   xmlns:sodipodi="http://sodipodi.sourceforge.net/DTD/sodipodi-0.dtd"
   xmlns="http://www.w3.org/2000/svg"
   xmlns:svg="http://www.w3.org/2000/svg">
  <defs
     id="defs8" />
  <sodipodi:namedview
     id="namedview6"
     pagecolor="#ffffff"
     bordercolor="#666666"
     borderopacity="1.0"
     inkscape:pageshadow="2"
     inkscape:pageopacity="0.0"
     inkscape:pagecheckerboard="0"
     showgrid="false"
     inkscape:zoom="9.9326406"
     inkscape:cx="-55.725363"
     inkscape:cy="-5.587638"
     inkscape:window-width="2560"
     inkscape:window-height="1376"
     inkscape:window-x="0"
     inkscape:window-y="27"
     inkscape:window-maximized="1"
     inkscape:current-layer="svg4" />
  <path
     fill-rule="evenodd"
     clip-rule="evenodd"
     d="m 6.0399826,5.7478796 -1.551,1.545 c -0.2858585,0.2847014 -0.5113551,0.6241366 -0.663,0.998 -0.1544827,0.3703406 -0.2336889,0.767731 -0.233,1.169 0,0.332 0.05,0.6560004 0.15,0.9700004 0.105,0.31 0.258,0.597 0.459,0.862 l -1.354,1.36 0.615,0.615 1.36,-1.353 c 0.265,0.2 0.552,0.353 0.862,0.458 0.314,0.1 0.638,0.15 0.97,0.15 0.406,0 0.796,-0.077 1.17,-0.232 0.378,-0.155 0.71,-0.376 0.998,-0.663 l 1.5450004,-1.552 c -4.3280004,-4.3270004 0,0 -4.3280004,-4.3270004 z m 1.45,5.7350004 c -0.2643942,0.109364 -0.5478819,0.16511 -0.834,0.164 -0.301,0 -0.586,-0.057 -0.855,-0.17 -0.2591641,-0.110871 -0.4954996,-0.268881 -0.697,-0.466 -0.1967257,-0.201614 -0.3543873,-0.437937 -0.465,-0.697 -0.1138653,-0.270232 -0.1716993,-0.5607634 -0.17,-0.8540004 -0.00224,-0.580333 0.2291381,-1.137156 0.642,-1.545 l 0.93,-0.93 3.09,3.0900004 -0.93,0.93 c -0.2037153,0.203987 -0.4452116,0.366343 -0.711,0.478 z"
     id="path2"
     sodipodi:nodetypes="ccccccccccsccccccccccccccc" />
  <path
     fill-rule="evenodd"
     clip-rule="evenodd"
     d="m 12.097405,5.9578326 c -0.09956,-0.3130092 -0.252105,-0.606606 -0.451,-0.868 l 1.354,-1.36 -0.616,-0.616 -1.360001,1.354 c -0.261397,-0.1991317 -0.554977,-0.3520097 -0.868,-0.452 -0.6992548,-0.2323772 -1.4587288,-0.2057601 -2.1399997,0.075 -0.3710688,0.1534795 -0.7079292,0.3791862 -0.991,0.664 l -1.545,1.551 4.3269997,4.3280004 1.552,-1.5450004 c 0.287001,-0.287 0.508001,-0.618 0.663001,-0.992 0.280671,-0.6812902 0.307287,-1.4407323 0.075,-2.14 z m -0.889001,1.804 c -0.108648,0.263934 -0.268761,0.5035933 -0.471,0.705 l -0.93,0.93 -3.0899997,-3.09 0.93,-0.93 c 0.2010221,-0.2024887 0.4403383,-0.3629393 0.7039997,-0.472 0.5400039,-0.2300485 1.1509215,-0.2275166 1.689,0.007 0.264,0.114 0.494,0.271 0.69,0.472 0.2,0.195 0.358,0.426 0.472,0.69 0.23423,0.5377909 0.236762,1.148285 0.007,1.688 z"
     id="path2-3"
     sodipodi:nodetypes="ccccccccccccccccccccccccc" />
</svg>
